<?xml version="1.0" standalone="no"?><!DOCTYPE svg PUBLIC "-//W3C//DTD SVG 1.1//EN" "http://www.w3.org/Graphics/SVG/1.1/DTD/svg11.dtd"><svg t="1527128425123" class="icon" style="" viewBox="0 0 1025 1024" version="1.1" xmlns="http://www.w3.org/2000/svg" p-id="1384" xmlns:xlink="http://www.w3.org/1999/xlink" width="200.1953125" height="200"><defs><style type="text/css"></style></defs><path d="M512.016875 0C229.23403 0 0 229.23403 0 512.016875 0 794.77597 229.23403 1024 512.016875 1024c282.774095 0 512.006875-229.22403 512.006875-511.983125C1024.025 229.23403 794.79097 0 512.016875 0zM814.937245 634.434524c0 45.312555-36.733795 82.0476-82.04135 82.0476L291.127855 716.482125c-45.307555 0-82.0401-36.735045-82.0401-82.0476l0-63.105077c0-45.312555 36.732545-82.0401 82.0401-82.0401l19.673774 0L310.801629 356.846686l0.01375 0c0.29375-27.290033 22.773778-49.32631 50.473812-49.32631 27.700034 0 50.181311 22.036277 50.473812 49.32631l0.015 0L411.778003 489.288097l321.114142 0c45.312555 0 82.04635 36.727545 82.04635 82.0401L814.938495 634.434524z" p-id="1385"></path><path d="M333.409157 357.451686 333.409157 357.451686l0-0.0525 0-0.025c0.00375-15.395019 12.480015-27.870034 27.880034-27.870034 15.396269 0 27.881284 12.480015 27.881284 27.880034 0 0.025-0.005 0.04375-0.005 0.06875l0.005 0 0 131.831411-55.766318 0L333.409157 357.451686 333.409157 357.451686 333.409157 357.451686 333.409157 357.451686z" p-id="1386"></path><path d="M732.895895 514.531878 291.127855 514.531878c-31.366288 0-56.796319 25.415031-56.796319 56.797569l0 63.105077c0 31.363788 25.430031 56.801319 56.796319 56.801319l441.764289 0c31.372538 0 56.801319-25.438781 56.801319-56.801319l0-63.105077C789.693464 539.946909 764.263433 514.531878 732.895895 514.531878zM549.878171 649.127042c-13.945017 0-25.243781-11.318764-25.243781-25.243781 0-13.950017 11.298764-25.243781 25.243781-25.243781 13.935017 0 25.238781 11.293764 25.238781 25.243781C575.118202 637.808279 563.814438 649.127042 549.878171 649.127042zM625.610764 649.127042c-13.945017 0-25.248781-11.318764-25.248781-25.243781 0-13.950017 11.308764-25.243781 25.248781-25.243781s25.243781 11.293764 25.243781 25.243781C650.855795 637.808279 639.552031 649.127042 625.610764 649.127042zM701.343356 649.127042c-13.940017 0-25.248781-11.318764-25.248781-25.243781 0-13.950017 11.308764-25.243781 25.248781-25.243781 13.935017 0 25.238781 11.293764 25.238781 25.243781C726.583387 637.808279 715.279623 649.127042 701.343356 649.127042z" p-id="1387"></path><path d="M512.016875 999.03122" p-id="1388"></path></svg>